<svg xmlns="http://www.w3.org/2000/svg" xmlns:xlink="http://www.w3.org/1999/xlink" width="1150pt" height="427pt" viewBox="0.00 0.00 1150.31 426.80">
<g id="graph0" class="graph" transform="scale(1 1) rotate(0) translate(4 422.8)">
<title>LeaderboardFlow</title>
<polygon fill="white" stroke="none" points="-4,4 -4,-422.8 1146.31,-422.8 1146.31,4 -4,4"/>
<!-- User -->
<g id="node1" class="node">
<title>User</title>
<ellipse fill="none" stroke="black" cx="583.79" cy="-400.8" rx="64.67" ry="18"/>
<text text-anchor="middle" x="583.79" y="-396.6" font-family="Times,serif" font-size="14.00">User/Browser</text>
</g>
<!-- Frontend -->
<g id="node2" class="node">
<title>Frontend</title>
<polygon fill="lightblue" stroke="black" points="637.67,-313.2 529.91,-313.2 529.91,-271.6 637.67,-271.6 637.67,-313.2"/>
<text text-anchor="middle" x="583.79" y="-296.6" font-family="Times,serif" font-size="14.00">Frontend</text>
<text text-anchor="middle" x="583.79" y="-279.8" font-family="Times,serif" font-size="14.00">(localhost:3001)</text>
</g>
<!-- User&#45;&gt;Frontend -->
<g id="edge1" class="edge">
<title>User-&gt;Frontend</title>
<path fill="none" stroke="black" d="M583.79,-382.7C583.79,-367.11 583.79,-343.69 583.79,-324.74"/>
<polygon fill="black" stroke="black" points="587.29,-324.87 583.79,-314.87 580.29,-324.87 587.29,-324.87"/>
<text text-anchor="middle" x="625" y="-352.2" font-family="Times,serif" font-size="14.00">HTTP GET</text>
<text text-anchor="middle" x="625" y="-335.4" font-family="Times,serif" font-size="14.00">localhost:3001</text>
</g>
<!-- Backend -->
<g id="node3" class="node">
<title>Backend</title>
<polygon fill="lightgreen" stroke="black" points="637.67,-185.2 529.91,-185.2 529.91,-143.6 637.67,-143.6 637.67,-185.2"/>
<text text-anchor="middle" x="583.79" y="-168.6" font-family="Times,serif" font-size="14.00">Backend</text>
<text text-anchor="middle" x="583.79" y="-151.8" font-family="Times,serif" font-size="14.00">(localhost:4000)</text>
</g>
<!-- Frontend&#45;&gt;Backend -->
<g id="edge2" class="edge">
<title>Frontend-&gt;Backend</title>
<path fill="none" stroke="black" d="M529.68,-291.25C463.09,-289.79 355.71,-282.81 330.54,-253.6 315.91,-236.63 315.91,-220.17 330.54,-203.2 354.34,-175.59 451.59,-167.84 518.41,-165.84"/>
<polygon fill="black" stroke="black" points="518.26,-169.34 528.16,-165.58 518.08,-162.35 518.26,-169.34"/>
<text text-anchor="middle" x="401.66" y="-241" font-family="Times,serif" font-size="14.00">Proxied GET</text>
<text text-anchor="middle" x="401.66" y="-224.2" font-family="Times,serif" font-size="14.00">/api/leetcode-leaderboard</text>
<text text-anchor="middle" x="401.66" y="-207.4" font-family="Times,serif" font-size="14.00">(if LeetCode selected)</text>
</g>
<!-- Frontend&#45;&gt;Backend -->
<g id="edge8" class="edge">
<title>Frontend-&gt;Backend</title>
<path fill="none" stroke="black" d="M529.64,-281.02C514.82,-275.42 500.41,-266.82 491.54,-253.6 479.06,-235 479.06,-221.8 491.54,-203.2 498.34,-193.08 508.37,-185.66 519.36,-180.23"/>
<polygon fill="black" stroke="black" points="520.46,-183.57 528.25,-176.39 517.69,-177.14 520.46,-183.57"/>
<text text-anchor="middle" x="569.66" y="-241" font-family="Times,serif" font-size="14.00">Proxied GET</text>
<text text-anchor="middle" x="569.66" y="-224.2" font-family="Times,serif" font-size="14.00">/api/codeforces-leaderboard</text>
<text text-anchor="middle" x="569.66" y="-207.4" font-family="Times,serif" font-size="14.00">(if Codeforces selected)</text>
</g>
<!-- Backend&#45;&gt;Frontend -->
<g id="edge7" class="edge">
<title>Backend-&gt;Frontend</title>
<path fill="none" stroke="black" d="M635.1,-185.66C641.76,-190.43 647.68,-196.21 651.79,-203.2 663.14,-222.51 663.14,-234.29 651.79,-253.6 649.6,-257.31 646.91,-260.68 643.87,-263.75"/>
<polygon fill="black" stroke="black" points="641.65,-261.04 636.26,-270.16 646.16,-266.39 641.65,-261.04"/>
<text text-anchor="middle" x="714.15" y="-232.6" font-family="Times,serif" font-size="14.00">JSON Leaderboard</text>
<text text-anchor="middle" x="714.15" y="-215.8" font-family="Times,serif" font-size="14.00">(LeetCode)</text>
</g>
<!-- Backend&#45;&gt;Frontend -->
<g id="edge13" class="edge">
<title>Backend-&gt;Frontend</title>
<path fill="none" stroke="black" d="M638.02,-168.83C687.41,-173.22 755.12,-182.85 771.79,-203.2 785.98,-220.53 785.98,-236.27 771.79,-253.6 756.36,-272.44 697.18,-282.09 649.29,-286.9"/>
<polygon fill="black" stroke="black" points="649.15,-283.4 639.52,-287.83 649.81,-290.37 649.15,-283.4"/>
<text text-anchor="middle" x="836.27" y="-232.6" font-family="Times,serif" font-size="14.00">JSON Leaderboard</text>
<text text-anchor="middle" x="836.27" y="-215.8" font-family="Times,serif" font-size="14.00">(Codeforces)</text>
</g>
<!-- Leetcode_api -->
<g id="node4" class="node">
<title>Leetcode_api</title>
<polygon fill="lightyellow" stroke="black" points="176.67,-49.4 68.91,-49.4 68.91,-7.8 176.67,-7.8 176.67,-49.4"/>
<text text-anchor="middle" x="122.79" y="-32.8" font-family="Times,serif" font-size="14.00">Leetcode_api</text>
<text text-anchor="middle" x="122.79" y="-16" font-family="Times,serif" font-size="14.00">(localhost:3000)</text>
</g>
<!-- Backend&#45;&gt;Leetcode_api -->
<g id="edge4" class="edge">
<title>Backend-&gt;Leetcode_api</title>
<path fill="none" stroke="black" d="M529.76,-163.93C393.77,-164.71 45.62,-163 10.61,-125.6 -4.7,-109.25 -1.9,-93.78 10.61,-75.2 21.55,-58.94 39.39,-48.48 57.66,-41.75"/>
<polygon fill="black" stroke="black" points="58.58,-45.13 66.98,-38.67 56.39,-38.48 58.58,-45.13"/>
<text text-anchor="middle" x="111.7" y="-113" font-family="Times,serif" font-size="14.00">GET</text>
<text text-anchor="middle" x="111.7" y="-96.2" font-family="Times,serif" font-size="14.00">/userProfile/:username</text>
<text text-anchor="middle" x="111.7" y="-79.4" font-family="Times,serif" font-size="14.00">/userContestRankingInfo/:username</text>
</g>
<!-- Redis -->
<g id="node5" class="node">
<title>Redis</title>
<path fill="lightcoral" stroke="black" d="M637.67,-52C637.67,-54.87 613.52,-57.2 583.79,-57.2 554.06,-57.2 529.91,-54.87 529.91,-52 529.91,-52 529.91,-5.2 529.91,-5.2 529.91,-2.33 554.06,0 583.79,0 613.52,0 637.67,-2.33 637.67,-5.2 637.67,-5.2 637.67,-52 637.67,-52"/>
<path fill="none" stroke="black" d="M637.67,-52C637.67,-49.13 613.52,-46.8 583.79,-46.8 554.06,-46.8 529.91,-49.13 529.91,-52"/>
<text text-anchor="middle" x="583.79" y="-32.8" font-family="Times,serif" font-size="14.00">Redis</text>
<text text-anchor="middle" x="583.79" y="-16" font-family="Times,serif" font-size="14.00">(localhost:6379)</text>
</g>
<!-- Backend&#45;&gt;Redis -->
<g id="edge3" class="edge">
<title>Backend-&gt;Redis</title>
<path fill="none" stroke="black" d="M529.59,-163.57C460.84,-162.5 348.04,-156.01 321.71,-125.6 307.04,-108.67 307.29,-92.34 321.71,-75.2 346.34,-45.9 448.97,-35.43 518.25,-31.68"/>
<polygon fill="black" stroke="black" points="518.16,-35.19 527.98,-31.19 517.81,-28.2 518.16,-35.19"/>
<text text-anchor="middle" x="395.75" y="-104.6" font-family="Times,serif" font-size="14.00">Check Cache</text>
<text text-anchor="middle" x="395.75" y="-87.8" font-family="Times,serif" font-size="14.00">GET leetcodeLeaderboard</text>
</g>
<!-- Backend&#45;&gt;Redis -->
<g id="edge9" class="edge">
<title>Backend-&gt;Redis</title>
<path fill="none" stroke="black" d="M529.52,-153.92C513.72,-148.37 498.19,-139.56 488.71,-125.6 476.14,-107.06 476.78,-94.16 488.71,-75.2 496.1,-63.46 507.44,-54.68 519.75,-48.13"/>
<polygon fill="black" stroke="black" points="520.89,-51.47 528.4,-44 517.87,-45.15 520.89,-51.47"/>
<text text-anchor="middle" x="569.75" y="-104.6" font-family="Times,serif" font-size="14.00">Check Cache</text>
<text text-anchor="middle" x="569.75" y="-87.8" font-family="Times,serif" font-size="14.00">GET codeforcesLeaderboard</text>
</g>
<!-- Codeforces_API -->
<g id="node6" class="node">
<title>Codeforces_API</title>
<polygon fill="lightpink" stroke="black" points="1031.69,-49.4 925.88,-49.4 925.88,-7.8 1031.69,-7.8 1031.69,-49.4"/>
<text text-anchor="middle" x="978.79" y="-32.8" font-family="Times,serif" font-size="14.00">Codeforces API</text>
<text text-anchor="middle" x="978.79" y="-16" font-family="Times,serif" font-size="14.00">(external)</text>
</g>
<!-- Backend&#45;&gt;Codeforces_API -->
<g id="edge10" class="edge">
<title>Backend-&gt;Codeforces_API</title>
<path fill="none" stroke="black" d="M638.1,-159.3C699.12,-153.93 793.68,-143.09 824.79,-125.6 850.35,-111.22 843.67,-92.45 867.4,-75.2 881.68,-64.82 898.66,-56.32 915.02,-49.6"/>
<polygon fill="black" stroke="black" points="916.2,-52.89 924.23,-45.98 913.64,-46.38 916.2,-52.89"/>
<text text-anchor="middle" x="968.09" y="-104.6" font-family="Times,serif" font-size="14.00">GET</text>
<text text-anchor="middle" x="968.09" y="-87.8" font-family="Times,serif" font-size="14.00">https://codeforces.com/api/user.info</text>
</g>
<!-- Leetcode_api&#45;&gt;Backend -->
<g id="edge5" class="edge">
<title>Leetcode_api-&gt;Backend</title>
<path fill="none" stroke="black" d="M174.52,-49.68C187.95,-56.46 201.73,-64.97 212.79,-75.2 232.02,-93.01 221.31,-111.51 243.4,-125.6 287.56,-153.76 432.11,-161.06 517.99,-162.88"/>
<polygon fill="black" stroke="black" points="517.86,-166.38 527.93,-163.07 518,-159.38 517.86,-166.38"/>
<text text-anchor="middle" x="275.09" y="-96.2" font-family="Times,serif" font-size="14.00">JSON Data</text>
</g>
<!-- Redis&#45;&gt;Backend -->
<g id="edge6" class="edge">
<title>Redis-&gt;Backend</title>
<path fill="none" stroke="black" d="M637.5,-55.29C644.43,-60.88 650.57,-67.49 654.79,-75.2 665.52,-94.86 666.32,-106.4 654.79,-125.6 652.47,-129.46 649.6,-132.95 646.37,-136.1"/>
<polygon fill="black" stroke="black" points="644.35,-133.23 638.84,-142.29 648.79,-138.64 644.35,-133.23"/>
<text text-anchor="middle" x="699.09" y="-104.6" font-family="Times,serif" font-size="14.00">Cached Data</text>
<text text-anchor="middle" x="699.09" y="-87.8" font-family="Times,serif" font-size="14.00">(if available)</text>
</g>
<!-- Redis&#45;&gt;Backend -->
<g id="edge12" class="edge">
<title>Redis-&gt;Backend</title>
<path fill="none" stroke="black" d="M637.84,-38.46C677.5,-46.19 726.48,-58.75 738.79,-75.2 752.2,-93.14 752.62,-107.98 738.79,-125.6 727.47,-140.01 686.44,-149.62 649.44,-155.55"/>
<polygon fill="black" stroke="black" points="648.98,-152.08 639.62,-157.04 650.04,-159 648.98,-152.08"/>
<text text-anchor="middle" x="784.96" y="-104.6" font-family="Times,serif" font-size="14.00">Cached Data</text>
<text text-anchor="middle" x="784.96" y="-87.8" font-family="Times,serif" font-size="14.00">(if available)</text>
</g>
<!-- Codeforces_API&#45;&gt;Backend -->
<g id="edge11" class="edge">
<title>Codeforces_API-&gt;Backend</title>
<path fill="none" stroke="black" d="M1031.88,-44.86C1046.35,-51.72 1060.35,-61.47 1068.79,-75.2 1080.51,-94.29 1084,-109.16 1068.79,-125.6 1040.87,-155.77 774.95,-161.91 649.15,-163.13"/>
<polygon fill="black" stroke="black" points="649.27,-159.62 639.3,-163.21 649.33,-166.62 649.27,-159.62"/>
<text text-anchor="middle" x="1110.62" y="-96.2" font-family="Times,serif" font-size="14.00">JSON Data</text>
</g>
</g>
</svg>